{"title":"James Bond - 007 - For Your Eyes Only","uid":5596449,"size":685367322,"categoryP":"video","categoryS":"movies","magnet":"?xt=urn:btih:e054fafd3fd9cff4f7b8e42b0e0c9eb323632e69&amp;dn=James+Bond+-+007+-+For+Your+Eyes+Only&amp;tr=udp%3A%2F%2Ftracker.openbittorrent.com%3A80&amp;tr=udp%3A%2F%2Fopen.demonii.com%3A1337&amp;tr=udp%3A%2F%2Ftracker.coppersurfer.tk%3A6969&amp;tr=udp%3A%2F%2Fexodus.desync.com%3A6969","seeders":2,"leechers":0,"uploader":"YoCkNeR-BeNzO","files":2,"time":1275007643,"description":"After a ship sunk off the coast of Albania, the world's superpowers begin a feverish search for its valuable lost cargo: the powerful ATAC system, which will give its bearer unlimited control over Polaris nuclear submarines. As Bond joins the search, he suspects the suave Kristatos of seizing the device. The competition between nations grows more deadly by the moment, but Bond finds an ally in the beautiful Melina Havelock, who blames Kristatos for the death of her parents. The non-stop action includes automobile chases, thrilling underwater battles, and even a breathtaking tour over razor-sharp coral reefs. But all of this is merely a prelude to 007's cliffhanging assault of a magnificent mountaintop fortress. \n\n\nFormat : AVI\nFormat/Info : Audio Video Interleave\nFile size : 654 MiB\nDuration : 2h 7mn\nOverall bit rate : 716 Kbps\nWriting application : MEncoder SVN-r29352(20090610-gcc4.3.3)\nWriting library : MPlayer\n\nVideo\nFormat : avc1\nCodec ID : avc1\nDuration : 2h 7mn\nBit rate : 576 Kbps\nWidth : 480 pixels\nHeight : 360 pixels\nDisplay aspect ratio : 4:3\nFrame rate : 25.000 fps\nBits/(Pixel*Frame) : 0.133\nStream size : 526 MiB (80%)\n\nAudio\nID : 1\nFormat : MPEG Audio\nFormat version : Version 1\nFormat profile : Layer 3\nMode : Joint stereo\nCodec ID : 55\nCodec ID/Hint : MP3\nDuration : 2h 7mn\nBit rate mode : Constant\nBit rate : 128 Kbps\nChannel(s) : 2 channels\nSampling rate : 44.1 KHz\nStream size : 117 MiB (18%)\nAlignment : Aligned on interleaves\nInterleave, duration : 26 ms (0.65 video frame)\nInterleave, preload duration : 522 ms\nWriting library : LAME3.98","torrent":{"xt":"urn:btih:e054fafd3fd9cff4f7b8e42b0e0c9eb323632e69","amp;dn":"James+Bond+-+007+-+For+Your+Eyes+Only","amp;tr":["udp%3A%2F%2Ftracker.openbittorrent.com%3A80","udp%3A%2F%2Fopen.demonii.com%3A1337","udp%3A%2F%2Ftracker.coppersurfer.tk%3A6969","udp%3A%2F%2Fexodus.desync.com%3A6969"],"infoHash":"e054fafd3fd9cff4f7b8e42b0e0c9eb323632e69","infoHashBuffer":{"type":"Buffer","data":[224,84,250,253,63,217,207,244,247,184,228,43,14,12,158,179,35,99,46,105]},"announce":[],"urlList":[]}}